<?xml version="1.0" encoding="UTF-8" standalone="no"?>
<!DOCTYPE svg PUBLIC "-//W3C//DTD SVG 1.1//EN"
 "http://www.w3.org/Graphics/SVG/1.1/DTD/svg11.dtd">
<!-- Generated by graphviz version 3.0.0 (20220226.1711)
 -->
<!-- Title: n=3 Pages: 1 -->
<svg width="525pt" height="393pt"
  xmlns="http://www.w3.org/2000/svg" xmlns:xlink="http://www.w3.org/1999/xlink">
<g id="graph0" class="graph" transform="scale(1.38889 1.38889) rotate(0) translate(4 279)">
<title>n=3</title>
<polygon fill="white" stroke="transparent" points="-4,4 -4,-279 373.69,-279 373.69,4 -4,4"/>
<text text-anchor="middle" x="184.85" y="-7.8" font-family="Times,serif" font-size="14.00">n=3</text>
<!-- \:peak\: #\{\} -->
<g id="node1" class="node">
<title>\:peak\: #\{\}</title>
<ellipse fill="none" stroke="black" cx="50.7" cy="-41" rx="48.19" ry="18"/>
<text text-anchor="middle" x="50.7" y="-37.3" font-family="Times,serif" font-size="14.00">:peak: #{}</text>
</g>
<!-- \:range\: #\{\} -->
<g id="node2" class="node">
<title>\:range\: #\{\}</title>
<ellipse fill="none" stroke="black" cx="50.7" cy="-113" rx="50.89" ry="18"/>
<text text-anchor="middle" x="50.7" y="-109.3" font-family="Times,serif" font-size="14.00">:range: #{}</text>
</g>
<!-- \:peak\: #\{\}&#45;&#45;\:range\: #\{\} -->
<g id="edge1" class="edge">
<title>\:peak\: #\{\}&#45;&#45;\:range\: #\{\}</title>
<path fill="none" stroke="black" d="M50.7,-59.3C50.7,-70.15 50.7,-84.08 50.7,-94.9"/>
</g>
<!-- \:range\: #\{0..2\} -->
<g id="node3" class="node">
<title>\:range\: #\{0..2\}</title>
<ellipse fill="none" stroke="black" cx="183.7" cy="-185" rx="64.19" ry="18"/>
<text text-anchor="middle" x="183.7" y="-181.3" font-family="Times,serif" font-size="14.00">:range: #{0..2}</text>
</g>
<!-- \:range\: #\{\}&#45;&#45;\:range\: #\{0..2\} -->
<g id="edge2" class="edge">
<title>\:range\: #\{\}&#45;&#45;\:range\: #\{0..2\}</title>
<path fill="none" stroke="black" d="M77.93,-128.33C100.27,-140.09 131.83,-156.7 154.65,-168.71"/>
</g>
<!-- \:belt\: #\{0..2\} -->
<g id="node4" class="node">
<title>\:belt\: #\{0..2\}</title>
<ellipse fill="none" stroke="black" cx="183.7" cy="-257" rx="57.69" ry="18"/>
<text text-anchor="middle" x="183.7" y="-253.3" font-family="Times,serif" font-size="14.00">:belt: #{0..2}</text>
</g>
<!-- \:range\: #\{0..2\}&#45;&#45;\:belt\: #\{0..2\} -->
<g id="edge3" class="edge">
<title>\:range\: #\{0..2\}&#45;&#45;\:belt\: #\{0..2\}</title>
<path fill="none" stroke="black" d="M171.94,-202.95C169.6,-213.95 169.61,-228.24 171.97,-239.21"/>
</g>
<!-- \:range\: #\{0..2\}&#45;&#45;\:belt\: #\{0..2\} -->
<g id="edge6" class="edge">
<title>\:range\: #\{0..2\}&#45;&#45;\:belt\: #\{0..2\}</title>
<path fill="none" stroke="black" d="M183.7,-203.3C183.7,-214.15 183.7,-228.08 183.7,-238.9"/>
</g>
<!-- \:range\: #\{0..2\}&#45;&#45;\:belt\: #\{0..2\} -->
<g id="edge8" class="edge">
<title>\:range\: #\{0..2\}&#45;&#45;\:belt\: #\{0..2\}</title>
<path fill="none" stroke="black" d="M195.45,-202.95C197.79,-213.95 197.78,-228.24 195.42,-239.21"/>
</g>
<!-- \:peak\: #\{0..1\} -->
<g id="node5" class="node">
<title>\:peak\: #\{0..1\}</title>
<ellipse fill="none" stroke="black" cx="183.7" cy="-41" rx="61.99" ry="18"/>
<text text-anchor="middle" x="183.7" y="-37.3" font-family="Times,serif" font-size="14.00">:peak: #{0..1}</text>
</g>
<!-- \:range\: #\{0..1\} -->
<g id="node6" class="node">
<title>\:range\: #\{0..1\}</title>
<ellipse fill="none" stroke="black" cx="183.7" cy="-113" rx="64.19" ry="18"/>
<text text-anchor="middle" x="183.7" y="-109.3" font-family="Times,serif" font-size="14.00">:range: #{0..1}</text>
</g>
<!-- \:peak\: #\{0..1\}&#45;&#45;\:range\: #\{0..1\} -->
<g id="edge4" class="edge">
<title>\:peak\: #\{0..1\}&#45;&#45;\:range\: #\{0..1\}</title>
<path fill="none" stroke="black" d="M183.7,-59.3C183.7,-70.15 183.7,-84.08 183.7,-94.9"/>
</g>
<!-- \:range\: #\{0..1\}&#45;&#45;\:range\: #\{0..2\} -->
<g id="edge5" class="edge">
<title>\:range\: #\{0..1\}&#45;&#45;\:range\: #\{0..2\}</title>
<path fill="none" stroke="black" d="M183.7,-131.3C183.7,-142.15 183.7,-156.08 183.7,-166.9"/>
</g>
<!-- \:peak\: #\{2\} -->
<g id="node7" class="node">
<title>\:peak\: #\{2\}</title>
<ellipse fill="none" stroke="black" cx="317.7" cy="-113" rx="51.99" ry="18"/>
<text text-anchor="middle" x="317.7" y="-109.3" font-family="Times,serif" font-size="14.00">:peak: #{2}</text>
</g>
<!-- \:peak\: #\{2\}&#45;&#45;\:range\: #\{0..2\} -->
<g id="edge7" class="edge">
<title>\:peak\: #\{2\}&#45;&#45;\:range\: #\{0..2\}</title>
<path fill="none" stroke="black" d="M290.26,-128.33C267.74,-140.09 235.95,-156.7 212.96,-168.71"/>
</g>
</g>
</svg>
