<?xml version="1.0" encoding="UTF-8" standalone="no"?>
<!DOCTYPE svg PUBLIC "-//W3C//DTD SVG 1.1//EN"
 "http://www.w3.org/Graphics/SVG/1.1/DTD/svg11.dtd">
<!-- Generated by graphviz version 3.0.0 (20220226.1711)
 -->
<!-- Title: n=300 Pages: 1 -->
<svg width="1567pt" height="693pt"
  xmlns="http://www.w3.org/2000/svg" xmlns:xlink="http://www.w3.org/1999/xlink">
<g id="graph0" class="graph" transform="scale(1.38889 1.38889) rotate(0) translate(4 495)">
<title>n=300</title>
<polygon fill="white" stroke="transparent" points="-4,4 -4,-495 1124.19,-495 1124.19,4 -4,4"/>
<text text-anchor="middle" x="560.09" y="-7.8" font-family="Times,serif" font-size="14.00">n=300</text>
<!-- \:peak\: #\{272..287\} -->
<g id="node1" class="node">
<title>\:peak\: #\{272..287\}</title>
<ellipse fill="none" stroke="black" cx="79.29" cy="-185" rx="79.09" ry="18"/>
<text text-anchor="middle" x="79.29" y="-181.3" font-family="Times,serif" font-size="14.00">:peak: #{272..287}</text>
</g>
<!-- \:range\: #\{256..287\} -->
<g id="node2" class="node">
<title>\:range\: #\{256..287\}</title>
<ellipse fill="none" stroke="black" cx="343.29" cy="-257" rx="81.79" ry="18"/>
<text text-anchor="middle" x="343.29" y="-253.3" font-family="Times,serif" font-size="14.00">:range: #{256..287}</text>
</g>
<!-- \:peak\: #\{272..287\}&#45;&#45;\:range\: #\{256..287\} -->
<g id="edge1" class="edge">
<title>\:peak\: #\{272..287\}&#45;&#45;\:range\: #\{256..287\}</title>
<path fill="none" stroke="black" d="M128.95,-199.17C175.85,-211.6 245.84,-230.16 292.96,-242.65"/>
</g>
<!-- \:belt\: #\{0..287\} -->
<g id="node3" class="node">
<title>\:belt\: #\{0..287\}</title>
<ellipse fill="none" stroke="black" cx="513.29" cy="-329" rx="66.89" ry="18"/>
<text text-anchor="middle" x="513.29" y="-325.3" font-family="Times,serif" font-size="14.00">:belt: #{0..287}</text>
</g>
<!-- \:range\: #\{256..287\}&#45;&#45;\:belt\: #\{0..287\} -->
<g id="edge2" class="edge">
<title>\:range\: #\{256..287\}&#45;&#45;\:belt\: #\{0..287\}</title>
<path fill="none" stroke="black" d="M375.7,-273.71C403.84,-285.88 444.49,-302.58 474.37,-314.24"/>
</g>
<!-- \:range\: #\{256..287\}&#45;&#45;\:belt\: #\{0..287\} -->
<g id="edge31" class="edge">
<title>\:range\: #\{256..287\}&#45;&#45;\:belt\: #\{0..287\}</title>
<path fill="none" stroke="black" d="M384.54,-272.67C414.77,-284.5 455.01,-301.07 482.48,-312.98"/>
</g>
<!-- \:belt\: #\{0..295\} -->
<g id="node4" class="node">
<title>\:belt\: #\{0..295\}</title>
<ellipse fill="none" stroke="black" cx="513.29" cy="-401" rx="66.89" ry="18"/>
<text text-anchor="middle" x="513.29" y="-397.3" font-family="Times,serif" font-size="14.00">:belt: #{0..295}</text>
</g>
<!-- \:belt\: #\{0..287\}&#45;&#45;\:belt\: #\{0..295\} -->
<g id="edge3" class="edge">
<title>\:belt\: #\{0..287\}&#45;&#45;\:belt\: #\{0..295\}</title>
<path fill="none" stroke="black" d="M484.69,-345.54C477.82,-357.14 477.83,-372.92 484.72,-384.51"/>
</g>
<!-- \:belt\: #\{0..287\}&#45;&#45;\:belt\: #\{0..295\} -->
<g id="edge9" class="edge">
<title>\:belt\: #\{0..287\}&#45;&#45;\:belt\: #\{0..295\}</title>
<path fill="none" stroke="black" d="M495.77,-346.59C492.12,-357.75 492.13,-372.4 495.81,-383.53"/>
</g>
<!-- \:belt\: #\{0..287\}&#45;&#45;\:belt\: #\{0..295\} -->
<g id="edge17" class="edge">
<title>\:belt\: #\{0..287\}&#45;&#45;\:belt\: #\{0..295\}</title>
<path fill="none" stroke="black" d="M507.41,-346.95C506.26,-357.79 506.25,-371.82 507.38,-382.72"/>
</g>
<!-- \:belt\: #\{0..287\}&#45;&#45;\:belt\: #\{0..295\} -->
<g id="edge24" class="edge">
<title>\:belt\: #\{0..287\}&#45;&#45;\:belt\: #\{0..295\}</title>
<path fill="none" stroke="black" d="M519.17,-346.95C520.32,-357.79 520.33,-371.82 519.21,-382.72"/>
</g>
<!-- \:belt\: #\{0..287\}&#45;&#45;\:belt\: #\{0..295\} -->
<g id="edge32" class="edge">
<title>\:belt\: #\{0..287\}&#45;&#45;\:belt\: #\{0..295\}</title>
<path fill="none" stroke="black" d="M530.81,-346.59C534.47,-357.75 534.45,-372.4 530.77,-383.53"/>
</g>
<!-- \:belt\: #\{0..287\}&#45;&#45;\:belt\: #\{0..295\} -->
<g id="edge37" class="edge">
<title>\:belt\: #\{0..287\}&#45;&#45;\:belt\: #\{0..295\}</title>
<path fill="none" stroke="black" d="M541.89,-345.54C548.77,-357.14 548.76,-372.92 541.87,-384.51"/>
</g>
<!-- \:belt\: #\{0..299\} -->
<g id="node5" class="node">
<title>\:belt\: #\{0..299\}</title>
<ellipse fill="none" stroke="black" cx="513.29" cy="-473" rx="66.89" ry="18"/>
<text text-anchor="middle" x="513.29" y="-469.3" font-family="Times,serif" font-size="14.00">:belt: #{0..299}</text>
</g>
<!-- \:belt\: #\{0..295\}&#45;&#45;\:belt\: #\{0..299\} -->
<g id="edge4" class="edge">
<title>\:belt\: #\{0..295\}&#45;&#45;\:belt\: #\{0..299\}</title>
<path fill="none" stroke="black" d="M479.48,-416.85C470.56,-428.72 470.56,-445.3 479.49,-457.18"/>
</g>
<!-- \:belt\: #\{0..295\}&#45;&#45;\:belt\: #\{0..299\} -->
<g id="edge10" class="edge">
<title>\:belt\: #\{0..295\}&#45;&#45;\:belt\: #\{0..299\}</title>
<path fill="none" stroke="black" d="M490.09,-418.24C485.01,-429.54 485.03,-444.56 490.13,-455.85"/>
</g>
<!-- \:belt\: #\{0..295\}&#45;&#45;\:belt\: #\{0..299\} -->
<g id="edge13" class="edge">
<title>\:belt\: #\{0..295\}&#45;&#45;\:belt\: #\{0..299\}</title>
<path fill="none" stroke="black" d="M501.54,-418.95C499.2,-429.95 499.21,-444.24 501.57,-455.21"/>
</g>
<!-- \:belt\: #\{0..295\}&#45;&#45;\:belt\: #\{0..299\} -->
<g id="edge18" class="edge">
<title>\:belt\: #\{0..295\}&#45;&#45;\:belt\: #\{0..299\}</title>
<path fill="none" stroke="black" d="M513.29,-419.3C513.29,-430.15 513.29,-444.08 513.29,-454.9"/>
</g>
<!-- \:belt\: #\{0..295\}&#45;&#45;\:belt\: #\{0..299\} -->
<g id="edge25" class="edge">
<title>\:belt\: #\{0..295\}&#45;&#45;\:belt\: #\{0..299\}</title>
<path fill="none" stroke="black" d="M525.05,-418.95C527.39,-429.95 527.37,-444.24 525.02,-455.21"/>
</g>
<!-- \:belt\: #\{0..295\}&#45;&#45;\:belt\: #\{0..299\} -->
<g id="edge33" class="edge">
<title>\:belt\: #\{0..295\}&#45;&#45;\:belt\: #\{0..299\}</title>
<path fill="none" stroke="black" d="M536.5,-418.24C541.57,-429.54 541.56,-444.56 536.46,-455.85"/>
</g>
<!-- \:belt\: #\{0..295\}&#45;&#45;\:belt\: #\{0..299\} -->
<g id="edge38" class="edge">
<title>\:belt\: #\{0..295\}&#45;&#45;\:belt\: #\{0..299\}</title>
<path fill="none" stroke="black" d="M547.11,-416.85C556.03,-428.72 556.02,-445.3 547.09,-457.18"/>
</g>
<!-- \:peak\: #\{0..127\} -->
<g id="node6" class="node">
<title>\:peak\: #\{0..127\}</title>
<ellipse fill="none" stroke="black" cx="767.29" cy="-41" rx="70.39" ry="18"/>
<text text-anchor="middle" x="767.29" y="-37.3" font-family="Times,serif" font-size="14.00">:peak: #{0..127}</text>
</g>
<!-- \:range\: #\{0..127\} -->
<g id="node7" class="node">
<title>\:range\: #\{0..127\}</title>
<ellipse fill="none" stroke="black" cx="767.29" cy="-113" rx="73.39" ry="18"/>
<text text-anchor="middle" x="767.29" y="-109.3" font-family="Times,serif" font-size="14.00">:range: #{0..127}</text>
</g>
<!-- \:peak\: #\{0..127\}&#45;&#45;\:range\: #\{0..127\} -->
<g id="edge5" class="edge">
<title>\:peak\: #\{0..127\}&#45;&#45;\:range\: #\{0..127\}</title>
<path fill="none" stroke="black" d="M767.29,-59.3C767.29,-70.15 767.29,-84.08 767.29,-94.9"/>
</g>
<!-- \:range\: #\{0..191\} -->
<g id="node8" class="node">
<title>\:range\: #\{0..191\}</title>
<ellipse fill="none" stroke="black" cx="596.29" cy="-185" rx="73.39" ry="18"/>
<text text-anchor="middle" x="596.29" y="-181.3" font-family="Times,serif" font-size="14.00">:range: #{0..191}</text>
</g>
<!-- \:range\: #\{0..127\}&#45;&#45;\:range\: #\{0..191\} -->
<g id="edge6" class="edge">
<title>\:range\: #\{0..127\}&#45;&#45;\:range\: #\{0..191\}</title>
<path fill="none" stroke="black" d="M731.03,-128.85C701.91,-140.76 661.24,-157.41 632.21,-169.3"/>
</g>
<!-- \:belt\: #\{0..255\} -->
<g id="node9" class="node">
<title>\:belt\: #\{0..255\}</title>
<ellipse fill="none" stroke="black" cx="513.29" cy="-257" rx="66.89" ry="18"/>
<text text-anchor="middle" x="513.29" y="-253.3" font-family="Times,serif" font-size="14.00">:belt: #{0..255}</text>
</g>
<!-- \:range\: #\{0..191\}&#45;&#45;\:belt\: #\{0..255\} -->
<g id="edge7" class="edge">
<title>\:range\: #\{0..191\}&#45;&#45;\:belt\: #\{0..255\}</title>
<path fill="none" stroke="black" d="M571.24,-202.24C556.77,-213.38 539.27,-228.13 527.17,-239.37"/>
</g>
<!-- \:range\: #\{0..191\}&#45;&#45;\:belt\: #\{0..255\} -->
<g id="edge35" class="edge">
<title>\:range\: #\{0..191\}&#45;&#45;\:belt\: #\{0..255\}</title>
<path fill="none" stroke="black" d="M582.08,-202.95C569.85,-214.27 552.25,-229.08 537.82,-240.17"/>
</g>
<!-- \:belt\: #\{0..255\}&#45;&#45;\:belt\: #\{0..287\} -->
<g id="edge8" class="edge">
<title>\:belt\: #\{0..255\}&#45;&#45;\:belt\: #\{0..287\}</title>
<path fill="none" stroke="black" d="M495.77,-274.59C492.12,-285.75 492.13,-300.4 495.81,-311.53"/>
</g>
<!-- \:belt\: #\{0..255\}&#45;&#45;\:belt\: #\{0..287\} -->
<g id="edge16" class="edge">
<title>\:belt\: #\{0..255\}&#45;&#45;\:belt\: #\{0..287\}</title>
<path fill="none" stroke="black" d="M507.41,-274.95C506.26,-285.79 506.25,-299.82 507.38,-310.72"/>
</g>
<!-- \:belt\: #\{0..255\}&#45;&#45;\:belt\: #\{0..287\} -->
<g id="edge23" class="edge">
<title>\:belt\: #\{0..255\}&#45;&#45;\:belt\: #\{0..287\}</title>
<path fill="none" stroke="black" d="M519.17,-274.95C520.32,-285.79 520.33,-299.82 519.21,-310.72"/>
</g>
<!-- \:belt\: #\{0..255\}&#45;&#45;\:belt\: #\{0..287\} -->
<g id="edge36" class="edge">
<title>\:belt\: #\{0..255\}&#45;&#45;\:belt\: #\{0..287\}</title>
<path fill="none" stroke="black" d="M530.81,-274.59C534.47,-285.75 534.45,-300.4 530.77,-311.53"/>
</g>
<!-- \:peak\: #\{288..295\} -->
<g id="node10" class="node">
<title>\:peak\: #\{288..295\}</title>
<ellipse fill="none" stroke="black" cx="680.29" cy="-257" rx="79.09" ry="18"/>
<text text-anchor="middle" x="680.29" y="-253.3" font-family="Times,serif" font-size="14.00">:peak: #{288..295}</text>
</g>
<!-- \:range\: #\{288..295\} -->
<g id="node11" class="node">
<title>\:range\: #\{288..295\}</title>
<ellipse fill="none" stroke="black" cx="680.29" cy="-329" rx="81.79" ry="18"/>
<text text-anchor="middle" x="680.29" y="-325.3" font-family="Times,serif" font-size="14.00">:range: #{288..295}</text>
</g>
<!-- \:peak\: #\{288..295\}&#45;&#45;\:range\: #\{288..295\} -->
<g id="edge11" class="edge">
<title>\:peak\: #\{288..295\}&#45;&#45;\:range\: #\{288..295\}</title>
<path fill="none" stroke="black" d="M680.29,-275.3C680.29,-286.15 680.29,-300.08 680.29,-310.9"/>
</g>
<!-- \:range\: #\{288..295\}&#45;&#45;\:belt\: #\{0..295\} -->
<g id="edge12" class="edge">
<title>\:range\: #\{288..295\}&#45;&#45;\:belt\: #\{0..295\}</title>
<path fill="none" stroke="black" d="M644.06,-345.19C615.47,-357.17 575.86,-373.77 547.75,-385.56"/>
</g>
<!-- \:peak\: #\{\} -->
<g id="node12" class="node">
<title>\:peak\: #\{\}</title>
<ellipse fill="none" stroke="black" cx="907.29" cy="-113" rx="48.19" ry="18"/>
<text text-anchor="middle" x="907.29" y="-109.3" font-family="Times,serif" font-size="14.00">:peak: #{}</text>
</g>
<!-- \:range\: #\{\} -->
<g id="node13" class="node">
<title>\:range\: #\{\}</title>
<ellipse fill="none" stroke="black" cx="823.29" cy="-185" rx="50.89" ry="18"/>
<text text-anchor="middle" x="823.29" y="-181.3" font-family="Times,serif" font-size="14.00">:range: #{}</text>
</g>
<!-- \:peak\: #\{\}&#45;&#45;\:range\: #\{\} -->
<g id="edge14" class="edge">
<title>\:peak\: #\{\}&#45;&#45;\:range\: #\{\}</title>
<path fill="none" stroke="black" d="M888.23,-129.88C874.48,-141.34 856.01,-156.74 842.28,-168.18"/>
</g>
<!-- \:range\: #\{\}&#45;&#45;\:belt\: #\{0..255\} -->
<g id="edge15" class="edge">
<title>\:range\: #\{\}&#45;&#45;\:belt\: #\{0..255\}</title>
<path fill="none" stroke="black" d="M781.81,-195.37C725.05,-208.18 623.35,-231.15 562.72,-244.84"/>
</g>
<!-- \:peak\: #\{298..299\} -->
<g id="node14" class="node">
<title>\:peak\: #\{298..299\}</title>
<ellipse fill="none" stroke="black" cx="859.29" cy="-329" rx="79.09" ry="18"/>
<text text-anchor="middle" x="859.29" y="-325.3" font-family="Times,serif" font-size="14.00">:peak: #{298..299}</text>
</g>
<!-- \:range\: #\{296..299\} -->
<g id="node15" class="node">
<title>\:range\: #\{296..299\}</title>
<ellipse fill="none" stroke="black" cx="769.29" cy="-401" rx="81.79" ry="18"/>
<text text-anchor="middle" x="769.29" y="-397.3" font-family="Times,serif" font-size="14.00">:range: #{296..299}</text>
</g>
<!-- \:peak\: #\{298..299\}&#45;&#45;\:range\: #\{296..299\} -->
<g id="edge19" class="edge">
<title>\:peak\: #\{298..299\}&#45;&#45;\:range\: #\{296..299\}</title>
<path fill="none" stroke="black" d="M837.96,-346.59C823.62,-357.75 804.78,-372.4 790.47,-383.53"/>
</g>
<!-- \:range\: #\{296..299\}&#45;&#45;\:belt\: #\{0..299\} -->
<g id="edge20" class="edge">
<title>\:range\: #\{296..299\}&#45;&#45;\:belt\: #\{0..299\}</title>
<path fill="none" stroke="black" d="M716.66,-414.92C669.04,-427.44 599.93,-446.34 555.74,-458.92"/>
</g>
<!-- \:range\: #\{296..299\}&#45;&#45;\:belt\: #\{0..299\} -->
<g id="edge28" class="edge">
<title>\:range\: #\{296..299\}&#45;&#45;\:belt\: #\{0..299\}</title>
<path fill="none" stroke="black" d="M723.63,-416C677.8,-429 607.66,-448.15 561.09,-460.35"/>
</g>
<!-- \:peak\: #\{192..255\} -->
<g id="node16" class="node">
<title>\:peak\: #\{192..255\}</title>
<ellipse fill="none" stroke="black" cx="419.29" cy="-113" rx="79.09" ry="18"/>
<text text-anchor="middle" x="419.29" y="-109.3" font-family="Times,serif" font-size="14.00">:peak: #{192..255}</text>
</g>
<!-- \:range\: #\{0..255\} -->
<g id="node17" class="node">
<title>\:range\: #\{0..255\}</title>
<ellipse fill="none" stroke="black" cx="431.29" cy="-185" rx="73.39" ry="18"/>
<text text-anchor="middle" x="431.29" y="-181.3" font-family="Times,serif" font-size="14.00">:range: #{0..255}</text>
</g>
<!-- \:peak\: #\{192..255\}&#45;&#45;\:range\: #\{0..255\} -->
<g id="edge21" class="edge">
<title>\:peak\: #\{192..255\}&#45;&#45;\:range\: #\{0..255\}</title>
<path fill="none" stroke="black" d="M422.26,-131.3C424.12,-142.15 426.51,-156.08 428.36,-166.9"/>
</g>
<!-- \:range\: #\{0..255\}&#45;&#45;\:belt\: #\{0..255\} -->
<g id="edge22" class="edge">
<title>\:range\: #\{0..255\}&#45;&#45;\:belt\: #\{0..255\}</title>
<path fill="none" stroke="black" d="M450.73,-202.59C463.8,-213.75 480.96,-228.4 494,-239.53"/>
</g>
<!-- \:peak\: #\{296..297\} -->
<g id="node18" class="node">
<title>\:peak\: #\{296..297\}</title>
<ellipse fill="none" stroke="black" cx="1038.29" cy="-257" rx="79.09" ry="18"/>
<text text-anchor="middle" x="1038.29" y="-253.3" font-family="Times,serif" font-size="14.00">:peak: #{296..297}</text>
</g>
<!-- \:range\: #\{296..297\} -->
<g id="node19" class="node">
<title>\:range\: #\{296..297\}</title>
<ellipse fill="none" stroke="black" cx="1038.29" cy="-329" rx="81.79" ry="18"/>
<text text-anchor="middle" x="1038.29" y="-325.3" font-family="Times,serif" font-size="14.00">:range: #{296..297}</text>
</g>
<!-- \:peak\: #\{296..297\}&#45;&#45;\:range\: #\{296..297\} -->
<g id="edge26" class="edge">
<title>\:peak\: #\{296..297\}&#45;&#45;\:range\: #\{296..297\}</title>
<path fill="none" stroke="black" d="M1038.29,-275.3C1038.29,-286.15 1038.29,-300.08 1038.29,-310.9"/>
</g>
<!-- \:range\: #\{296..297\}&#45;&#45;\:range\: #\{296..299\} -->
<g id="edge27" class="edge">
<title>\:range\: #\{296..297\}&#45;&#45;\:range\: #\{296..299\}</title>
<path fill="none" stroke="black" d="M987.7,-343.17C939.76,-355.64 868.14,-374.28 820.12,-386.77"/>
</g>
<!-- \:peak\: #\{256..271\} -->
<g id="node20" class="node">
<title>\:peak\: #\{256..271\}</title>
<ellipse fill="none" stroke="black" cx="242.29" cy="-113" rx="79.09" ry="18"/>
<text text-anchor="middle" x="242.29" y="-109.3" font-family="Times,serif" font-size="14.00">:peak: #{256..271}</text>
</g>
<!-- \:range\: #\{256..271\} -->
<g id="node21" class="node">
<title>\:range\: #\{256..271\}</title>
<ellipse fill="none" stroke="black" cx="258.29" cy="-185" rx="81.79" ry="18"/>
<text text-anchor="middle" x="258.29" y="-181.3" font-family="Times,serif" font-size="14.00">:range: #{256..271}</text>
</g>
<!-- \:peak\: #\{256..271\}&#45;&#45;\:range\: #\{256..271\} -->
<g id="edge29" class="edge">
<title>\:peak\: #\{256..271\}&#45;&#45;\:range\: #\{256..271\}</title>
<path fill="none" stroke="black" d="M246.25,-131.3C248.73,-142.15 251.91,-156.08 254.38,-166.9"/>
</g>
<!-- \:range\: #\{256..271\}&#45;&#45;\:range\: #\{256..287\} -->
<g id="edge30" class="edge">
<title>\:range\: #\{256..271\}&#45;&#45;\:range\: #\{256..287\}</title>
<path fill="none" stroke="black" d="M278.44,-202.59C291.99,-213.75 309.77,-228.4 323.29,-239.53"/>
</g>
<!-- \:peak\: #\{128..191\} -->
<g id="node22" class="node">
<title>\:peak\: #\{128..191\}</title>
<ellipse fill="none" stroke="black" cx="596.29" cy="-113" rx="79.09" ry="18"/>
<text text-anchor="middle" x="596.29" y="-109.3" font-family="Times,serif" font-size="14.00">:peak: #{128..191}</text>
</g>
<!-- \:peak\: #\{128..191\}&#45;&#45;\:range\: #\{0..191\} -->
<g id="edge34" class="edge">
<title>\:peak\: #\{128..191\}&#45;&#45;\:range\: #\{0..191\}</title>
<path fill="none" stroke="black" d="M596.29,-131.3C596.29,-142.15 596.29,-156.08 596.29,-166.9"/>
</g>
</g>
</svg>
